<svg width="96" height="96" viewBox="0 0 96 96" fill="none" xmlns="http://www.w3.org/2000/svg">

<circle cx="46" cy="50" r="21.5" fill="#101010" stroke="#101010"/>
<circle cx="48" cy="48" r="21.5" fill="#4D21FF" stroke="#101010"/>
<path d="M47.2454 31.4004C47.2107 30.6373 46.5627 30.0412 45.8045 30.1344C43.3633 30.4344 41.0043 31.2322 38.8758 32.4839C36.7472 33.7356 34.9033 35.4093 33.4545 37.3968C33.0044 38.0142 33.2103 38.8702 33.8604 39.2715C34.5105 39.6728 35.358 39.4666 35.8166 38.8556C37.0229 37.2484 38.5381 35.892 40.2782 34.8688C42.0182 33.8455 43.9402 33.1807 45.9311 32.9078C46.688 32.804 47.2801 32.1636 47.2454 31.4004Z" fill="white"/>
<path d="M36.9735 59.1023L32.5272 54.1879C31.6717 53.2424 31.7079 51.7921 32.6095 50.8905C33.618 49.882 35.2792 49.974 36.1701 51.0877L39.2867 54.9834C39.931 55.7887 41.1352 55.8471 41.8544 55.108L56.7623 39.786C57.7181 38.8036 59.2928 38.7928 60.262 39.762C61.2219 40.7219 61.2219 42.2781 60.262 43.238L44.2167 59.2833C42.1948 61.3052 38.892 61.2227 36.9735 59.1023Z" fill="#101010" stroke="#101010"/>
<path d="M38.9735 57.1023L34.5272 52.1879C33.6717 51.2424 33.7079 49.7921 34.6095 48.8905C35.618 47.882 37.2792 47.974 38.1701 49.0877L41.2867 52.9834C41.931 53.7887 43.1352 53.8471 43.8544 53.108L58.7623 37.786C59.7181 36.8036 61.2928 36.7928 62.262 37.762C63.2219 38.7219 63.2219 40.2781 62.262 41.238L46.2167 57.2833C44.1948 59.3052 40.892 59.2227 38.9735 57.1023Z" fill="#CCFF6F" stroke="#101010"/>
</svg>
